<mxfile host="app.diagrams.net" modified="2023-07-11T02:32:30.487Z" agent="Mozilla/5.0 (Windows NT 10.0; Win64; x64) AppleWebKit/537.36 (KHTML, like Gecko) Chrome/114.0.0.0 Safari/537.36" etag="O3jozAIuipz2MAUY3bCX" version="21.6.1" type="github">
  <diagram name="第1頁" id="e8x7nLUZ2KBPXtW9Wovq">
    <mxGraphModel dx="1086" dy="3026" grid="1" gridSize="10" guides="1" tooltips="1" connect="1" arrows="1" fold="1" page="1" pageScale="1" pageWidth="827" pageHeight="1169" math="0" shadow="0">
      <root>
        <mxCell id="0" />
        <mxCell id="1" parent="0" />
        <mxCell id="DfMK4wFIMiDA-IrmHZem-29" value="" style="swimlane;startSize=0;fillColor=#dae8fc;strokeColor=#6c8ebf;rounded=1;swimlaneFillColor=#dae8fc;" vertex="1" parent="1">
          <mxGeometry x="10" y="-2290" width="730" height="630" as="geometry">
            <mxRectangle x="10" y="-2290" width="50" height="40" as="alternateBounds" />
          </mxGeometry>
        </mxCell>
        <mxCell id="DfMK4wFIMiDA-IrmHZem-30" value="&lt;font color=&quot;#009900&quot; style=&quot;font-size: 24px;&quot;&gt;APID：MTC-01&lt;/font&gt;" style="text;html=1;strokeColor=none;fillColor=none;align=center;verticalAlign=middle;whiteSpace=wrap;rounded=0;" vertex="1" parent="DfMK4wFIMiDA-IrmHZem-29">
          <mxGeometry x="180" y="17" width="240" height="30" as="geometry" />
        </mxCell>
        <mxCell id="DfMK4wFIMiDA-IrmHZem-11" value="" style="strokeColor=#dddddd;shadow=1;strokeWidth=1;rounded=1;absoluteArcSize=1;arcSize=2;" vertex="1" parent="DfMK4wFIMiDA-IrmHZem-29">
          <mxGeometry x="459" y="430" width="230" height="60" as="geometry" />
        </mxCell>
        <mxCell id="DfMK4wFIMiDA-IrmHZem-12" value="&lt;font style=&quot;font-size: 14px;&quot;&gt;&lt;font style=&quot;font-size: 14px;&quot; color=&quot;#000000&quot;&gt;dmrmidlxmtc01g01&lt;/font&gt;&lt;br&gt;Memorystore&lt;/font&gt;" style="editableCssRules=.*;html=1;fontColor=#999999;shape=image;verticalLabelPosition=middle;labelBackgroundColor=#ffffff;verticalAlign=middle;labelPosition=right;align=left;spacingLeft=20;part=1;points=[];imageAspect=0;image=data:image/svg+xml,PHN2ZyB4bWxucz0iaHR0cDovL3d3dy53My5vcmcvMjAwMC9zdmciIHhtbG5zOnY9Imh0dHBzOi8vdmVjdGEuaW8vbmFubyIgd2lkdGg9IjIwIiBoZWlnaHQ9IjIwIiB2aWV3Qm94PSIwIDAgMjAgMjAiPiYjeGE7CTxzdHlsZSB0eXBlPSJ0ZXh0L2NzcyI+JiN4YTsJLnN0MHtmaWxsOiM0Mjg1ZjQ7fSYjeGE7CS5zdDF7ZmlsbDojNjY5ZGY2O30mI3hhOwkuc3Qye2ZpbGw6I2FlY2JmYTt9JiN4YTsJPC9zdHlsZT4mI3hhOwk8cGF0aCBjbGFzcz0ic3QxIiBkPSJNMCAxLjk0aDMuMzN2Mi41OEgwem0wIDQuNTFoMy4zM3YyLjU4SDB6bTAgNC41MmgzLjMzdjIuNThIMHptMCA0LjUxaDMuMzN2Mi41OEgwek0xNi42NyAxLjk0SDIwdjIuNThoLTMuMzN6bTAgNC41MUgyMHYyLjU4aC0zLjMzem0wIDQuNTJIMjB2Mi41OGgtMy4zM3ptMCA0LjUxSDIwdjIuNThoLTMuMzN6Ii8+JiN4YTsJPHBhdGggY2xhc3M9InN0MCIgZD0iTTE2LjY3IDEuOTRsMi42NiAyLjU4aC0yLjY2em0wIDQuNTFsMi42NiAyLjU4aC0yLjY2em0wIDQuNTJsMi42NiAyLjU4aC0yLjY2em0wIDQuNTFsMi42NiAyLjU5aC0yLjY2eiIgZmlsbC1ydWxlPSJldmVub2RkIi8+JiN4YTsJPHBhdGggY2xhc3M9InN0MiIgZD0iTTMuMzMgMjBoMTMuMzRWMEgzLjMzem02LTlINmw0LjY3LTcuNzRWOUgxNGwtNC42NyA3Ljc0eiIgZmlsbC1ydWxlPSJldmVub2RkIi8+JiN4YTsJPHBhdGggY2xhc3M9InN0MSIgZD0iTTE0IDkuMDNoLTMuMzNWMGg2djIwSDkuMzN2LTMuMjN6IiBmaWxsLXJ1bGU9ImV2ZW5vZGQiLz4mI3hhOzwvc3ZnPg==;" vertex="1" parent="DfMK4wFIMiDA-IrmHZem-11">
          <mxGeometry width="30" height="30" relative="1" as="geometry">
            <mxPoint x="15" y="15" as="offset" />
          </mxGeometry>
        </mxCell>
        <mxCell id="DfMK4wFIMiDA-IrmHZem-9" value="" style="strokeColor=#dddddd;shadow=1;strokeWidth=1;rounded=1;absoluteArcSize=1;arcSize=2;" vertex="1" parent="DfMK4wFIMiDA-IrmHZem-29">
          <mxGeometry x="459" y="260" width="231" height="144" as="geometry" />
        </mxCell>
        <mxCell id="DfMK4wFIMiDA-IrmHZem-10" value="&lt;font style=&quot;font-size: 14px;&quot;&gt;&lt;font style=&quot;font-size: 14px;&quot; color=&quot;#000000&quot;&gt;dcsmidlxmtc01g01&lt;/font&gt;&lt;br&gt;Cloud SQL&lt;/font&gt;" style="editableCssRules=.*;html=1;fontColor=#999999;shape=image;verticalLabelPosition=middle;labelBackgroundColor=#ffffff;verticalAlign=middle;labelPosition=right;align=left;spacingLeft=20;part=1;points=[];imageAspect=0;image=data:image/svg+xml,PHN2ZyB4bWxucz0iaHR0cDovL3d3dy53My5vcmcvMjAwMC9zdmciIHhtbG5zOnY9Imh0dHBzOi8vdmVjdGEuaW8vbmFubyIgd2lkdGg9IjE0LjY1OTk5OTg0NzQxMjExIiBoZWlnaHQ9IjIwIiB2aWV3Qm94PSIwIDAgMTQuNjU5OTk5ODQ3NDEyMTEgMjAiPiYjeGE7CTxzdHlsZSB0eXBlPSJ0ZXh0L2NzcyI+JiN4YTsJLnN0MHtmaWxsOiM0Mjg1ZjQ7fSYjeGE7CS5zdDF7ZmlsbDojNjY5ZGY2O30mI3hhOwkuc3Qye2ZpbGw6I2FlY2JmYTt9JiN4YTsJPC9zdHlsZT4mI3hhOwk8c3R5bGU+JiN4YTsJCS5Ee2ZpbGwtcnVsZTpldmVub2RkfSYjeGE7CTwvc3R5bGU+JiN4YTsJPHBhdGggZD0iTTcuMzMgMTUuMzV2LTMuMDFMMCA4LjQ0djMuMDF6bTAgNC42NXYtMy4wMUwwIDEzLjA5djMuMDF6IiBjbGFzcz0ic3QyIEQiLz4mI3hhOwk8cGF0aCBkPSJNMTQuNjYgOC40NGwtNy4zMyAzLjl2My4wMWw3LjMzLTMuOXptMCA0LjY1bC03LjMzIDMuOVYyMGw3LjMzLTMuOXoiIGNsYXNzPSJzdDEgRCIvPiYjeGE7CTxwYXRoIGQ9Ik03LjMzIDB2My4wMWw3LjMzIDMuOVYzLjl6IiBjbGFzcz0ic3QwIEQiLz4mI3hhOwk8cGF0aCBkPSJNMCA2LjkxbDcuMzMtMy45VjBMMCAzLjl6IiBjbGFzcz0iRCBzdDEiLz4mI3hhOwk8cGF0aCBkPSJNNy4zMyAxMC43OVY3Ljc3TDAgMy44N3YzLjAyeiIgY2xhc3M9IkQgc3QyIi8+JiN4YTsJPHBhdGggZD0iTTE0LjY2IDMuODdsLTcuMzMgMy45djMuMDJsNy4zMy0zLjl6IiBjbGFzcz0iRCBzdDEiLz4mI3hhOzwvc3ZnPg==;" vertex="1" parent="DfMK4wFIMiDA-IrmHZem-9">
          <mxGeometry width="22" height="30" relative="1" as="geometry">
            <mxPoint x="19" y="15" as="offset" />
          </mxGeometry>
        </mxCell>
        <mxCell id="DfMK4wFIMiDA-IrmHZem-31" value="mtcqs" style="shape=cylinder3;whiteSpace=wrap;html=1;boundedLbl=1;backgroundOutline=1;size=15;" vertex="1" parent="DfMK4wFIMiDA-IrmHZem-9">
          <mxGeometry x="90.788755186722" y="60" width="49.43016597510373" height="74" as="geometry" />
        </mxCell>
        <mxCell id="DfMK4wFIMiDA-IrmHZem-7" value="" style="strokeColor=#dddddd;shadow=1;strokeWidth=1;rounded=1;absoluteArcSize=1;arcSize=2;" vertex="1" parent="DfMK4wFIMiDA-IrmHZem-29">
          <mxGeometry x="460" y="170" width="230" height="60" as="geometry" />
        </mxCell>
        <mxCell id="DfMK4wFIMiDA-IrmHZem-8" value="&lt;font style=&quot;font-size: 14px;&quot;&gt;&lt;font style=&quot;font-size: 14px;&quot; color=&quot;#000000&quot;&gt;dkrmidlxmtc01g01&lt;/font&gt;&lt;br&gt;Key Management Service&lt;/font&gt;" style="editableCssRules=.*;html=1;fontColor=#999999;shape=image;verticalLabelPosition=middle;labelBackgroundColor=#ffffff;verticalAlign=middle;labelPosition=right;align=left;spacingLeft=20;part=1;points=[];imageAspect=0;image=data:image/svg+xml,PHN2ZyB4bWxucz0iaHR0cDovL3d3dy53My5vcmcvMjAwMC9zdmciIHhtbG5zOnY9Imh0dHBzOi8vdmVjdGEuaW8vbmFubyIgd2lkdGg9IjMxMC43NzU2MDY1NDM4NjAyNSIgaGVpZ2h0PSIzNzcuOTUzMDI4ODM1NTI1NDYiIHZpZXdCb3g9Ii0wLjE0MDAwMDAwMDU5NjA0NjQ1IC0wLjQ2NzAwMDAwNzYyOTM5NDUzIDgyLjIyNTk5NzkyNDgwNDY5IDEwMC4wMDAwMDc2MjkzOTQ1MyI+JiN4YTs8c3R5bGUgdHlwZT0idGV4dC9jc3MiPiYjeGE7CS5zdDB7ZmlsbDojNDI4NWY0O30mI3hhOwkuc3Qxe2ZpbGw6IzY2OWRmNjt9JiN4YTsJLnN0MntmaWxsOiNmZmY7fSYjeGE7PC9zdHlsZT4mI3hhOwk8cGF0aCBjbGFzcz0ic3QwIiBkPSJNNDAuOTczLS40NjdsNDEuMTEzIDE3LjQ5M3YyOS42NTRjMCAyNy40MTgtMjQuNjA4IDUwLjgzNi00MS4xMTMgNTIuODUzeiIvPiYjeGE7CTxwYXRoIGNsYXNzPSJzdDEiIGQ9Ik00MC45NzMtLjQ2N0wtLjE0IDE3LjAyNXYyOS42NTRjMCAyNy40MTggMjQuNjA4IDUwLjgzNiA0MS4xMTMgNTIuODUzeiIvPiYjeGE7CTxwYXRoIGNsYXNzPSJzdDIiIGQ9Ik00MS4yNTMgMTYuNjA1Yy05LjU4NCAwLTE3LjQ0NSA3Ljg2Mi0xNy40NDUgMTcuNDQ1IDAgOC4wODQgNS41OTQgMTQuOTQyIDEzLjA5NiAxNi44OTF2OS40ODhoLTkuODY5djguNzAxaDkuODY5djUuMzc3aC02LjMxNXY4LjcwMWg2LjMxNXYyLjE5N2g4LjcwMVY1MC45NDFDNTMuMTA2IDQ4Ljk5MiA1OC43IDQyLjEzNCA1OC43IDM0LjA1YzAtOS41ODQtNy44NjMtMTcuNDQ1LTE3LjQ0Ny0xNy40NDV6bTAgOC42OTlBOC42OCA4LjY4IDAgMCAxIDUwIDM0LjA1YTguNjggOC42OCAwIDAgMS04Ljc0OCA4Ljc0NiA4LjY4IDguNjggMCAwIDEtOC43NDYtOC43NDYgOC42OCA4LjY4IDAgMCAxIDguNzQ2LTguNzQ2eiIvPiYjeGE7PC9zdmc+;" vertex="1" parent="DfMK4wFIMiDA-IrmHZem-7">
          <mxGeometry width="24" height="30" relative="1" as="geometry">
            <mxPoint x="18" y="15" as="offset" />
          </mxGeometry>
        </mxCell>
        <mxCell id="DfMK4wFIMiDA-IrmHZem-2" value="" style="shape=image;verticalLabelPosition=bottom;labelBackgroundColor=default;verticalAlign=top;aspect=fixed;imageAspect=0;image=data:image/svg+xml,PHN2ZyB4bWxucz0iaHR0cDovL3d3dy53My5vcmcvMjAwMC9zdmciIHZpZXdCb3g9IjAgMCAxMzguMzUgMjQiIGRhdGEtbmFtZT0iR29vZ2xlIENsb3VkIGxvZ28iIGlkPSJHb29nbGVfQ2xvdWRfbG9nbyI+PHBhdGggc3R5bGU9ImZpbGw6IzVmNjM2OCIgZD0iTTg5Ljc1LDE4LjYyQTguMzYsOC4zNiwwLDAsMSw4MS4yLDEwLDguMzMsOC4zMywwLDAsMSw4My42MywzLjlhOC4yNSw4LjI1LDAsMCwxLDYuMTItMi40OCw3LjYyLDcuNjIsMCwwLDEsNiwyLjY5TDk0LjI4LDUuNThhNS42NCw1LjY0LDAsMCwwLTQuNTMtMi4xNCw2LjIyLDYuMjIsMCwwLDAtNC41NywxLjg0QTYuMzgsNi4zOCwwLDAsMCw4My4zNiwxMGE2LjM4LDYuMzgsMCwwLDAsMS44Miw0Ljc0LDYuMTgsNi4xOCwwLDAsMCw0LjU3LDEuODQsNi40NCw2LjQ0LDAsMCwwLDUtMi40MmwxLjU0LDEuNWE4LDgsMCwwLDEtMi44NywyLjE3QTguNjcsOC42NywwLDAsMSw4OS43NSwxOC42MlpNMTAwLjEyLDEuNzlWMTguMjZIOThWMS43OVptMS44MiwxMC44M2E2LDYsMCwwLDEsMS42NC00LjMsNS41Nyw1LjU3LDAsMCwxLDQuMTYtMS43LDUuNTEsNS41MSwwLDAsMSw0LjE0LDEuNyw1LjkyLDUuOTIsMCwwLDEsMS42NSw0LjMsNS44Nyw1Ljg3LDAsMCwxLTEuNjUsNC4zLDUuNDcsNS40NywwLDAsMS00LjE0LDEuNyw1LjUzLDUuNTMsMCwwLDEtNC4xNi0xLjdBNiw2LDAsMCwxLDEwMS45NCwxMi42MlptMi4xMiwwYTQuMSw0LjEsMCwwLDAsMS4wNiwyLjk0LDMuNiwzLjYsMCwwLDAsNS4yNCwwLDQuMSw0LjEsMCwwLDAsMS4wNi0yLjk0LDQuMDcsNC4wNywwLDAsMC0xLjA2LTIuOTIsMy41NiwzLjU2LDAsMCwwLTUuMjQsMEE0LjA3LDQuMDcsMCwwLDAsMTA0LjA2LDEyLjYyWm0yMS4xNyw1LjY0aC0yVjE2LjY5aC0uMWEzLjc1LDMuNzUsMCwwLDEtMS40OCwxLjM4LDQuMjMsNC4yMywwLDAsMS0yLjA4LjU1LDQuMTgsNC4xOCwwLDAsMS0zLjE5LTEuMTgsNC43NCw0Ljc0LDAsMCwxLTEuMTEtMy4zN1Y3aDIuMTF2Ni45NGEyLjQ5LDIuNDksMCwwLDAsMi43OSwyLjc2LDIuNjMsMi42MywwLDAsMCwyLjExLTEsMy42OSwzLjY5LDAsMCwwLC44NS0yLjQ1VjdoMi4xMlptNy4xNi4zNmE1LDUsMCwwLDEtMy43OS0xLjc0QTYuMjQsNi4yNCwwLDAsMSwxMjcsMTIuNjJhNi4yLDYuMiwwLDAsMSwxLjU2LTQuMjUsNC45NCw0Ljk0LDAsMCwxLDMuNzktMS43NSw0Ljc4LDQuNzgsMCwwLDEsMi4yNy41Myw0LDQsMCwwLDEsMS41OCwxLjRoLjA5TDEzNi4yNCw3VjEuNzloMi4xMVYxOC4yNmgtMlYxNi42OWgtLjA5YTQsNCwwLDAsMS0xLjU4LDEuNEE0Ljc4LDQuNzgsMCwwLDEsMTMyLjM5LDE4LjYyWm0uMzUtMS45M2EzLjIxLDMuMjEsMCwwLDAsMi41NS0xLjEzLDQuMTcsNC4xNywwLDAsMCwxLTIuOTQsNC4yMSw0LjIxLDAsMCwwLTEtMi45MiwzLjIzLDMuMjMsMCwwLDAtMi41NS0xLjE1LDMuMjksMy4yOSwwLDAsMC0yLjU1LDEuMTUsNC4yMSw0LjIxLDAsMCwwLTEsMi45Miw0LjE0LDQuMTQsMCwwLDAsMSwyLjkyQTMuMjksMy4yOSwwLDAsMCwxMzIuNzQsMTYuNjlaIi8+PGcgZGF0YS1uYW1lPSI3NXgyNHB4IiBpZD0iXzc1eDI0cHgiPjxwYXRoIHN0eWxlPSJmaWxsOiM0Mjg1ZjQiIGQ9Ik05LjQ5LDE4LjYyQTkuNDYsOS40NiwwLDAsMSwwLDkuMzEsOS40Niw5LjQ2LDAsMCwxLDkuNDksMCw4LjkxLDguOTEsMCwwLDEsMTUuOSwyLjU3TDE0LjA5LDQuMzZhNi41MSw2LjUxLDAsMCwwLTQuNi0xLjgyQTYuNjksNi42OSwwLDAsMCwyLjc4LDkuMzFhNi42OSw2LjY5LDAsMCwwLDYuNzEsNi43Nyw2LjI1LDYuMjUsMCwwLDAsNC43Mi0xLjg3QTUuMjYsNS4yNiwwLDAsMCwxNS42LDExSDkuNDlWOC40N2g4LjZhOC4zOCw4LjM4LDAsMCwxLC4xMywxLjU5QTguMzcsOC4zNywwLDAsMSwxNiwxNiw4LjU3LDguNTcsMCwwLDEsOS40OSwxOC42MloiLz48cGF0aCBzdHlsZT0iZmlsbDojZWE0MzM1IiBkPSJNMzEuNTIsMTIuNjJhNS45NCw1Ljk0LDAsMSwxLTExLjg3LDAsNS45NCw1Ljk0LDAsMSwxLDExLjg3LDBabS0yLjYsMGEzLjM1LDMuMzUsMCwxLDAtNi42NywwLDMuMzUsMy4zNSwwLDEsMCw2LjY3LDBaIi8+PHBhdGggc3R5bGU9ImZpbGw6I2ZiYmMwNCIgZD0iTTQ0LjgzLDEyLjYyYTUuOTQsNS45NCwwLDEsMS0xMS44NywwLDUuOTQsNS45NCwwLDEsMSwxMS44NywwWm0tMi42LDBhMy4zNSwzLjM1LDAsMSwwLTYuNjgsMCwzLjM1LDMuMzUsMCwxLDAsNi42OCwwWiIvPjxwYXRoIHN0eWxlPSJmaWxsOiM0Mjg1ZjQiIGQ9Ik01Ny44LDdWMTcuNzZjMCw0LjQyLTIuNjMsNi4yNC01LjczLDYuMjRhNS43NSw1Ljc1LDAsMCwxLTUuMzQtMy41NGwyLjMxLTFhMy4zMiwzLjMyLDAsMCwwLDMsMi4xNGMyLDAsMy4yMi0xLjIzLDMuMjItMy41MnYtLjg2SDU1LjJBNC4xNiw0LjE2LDAsMCwxLDUyLDE4LjYyYTYsNiwwLDAsMSwwLTEyQTQuMjIsNC4yMiwwLDAsMSw1NS4yLDhoLjA5VjdabS0yLjMzLDUuNjZBMy4zOSwzLjM5LDAsMCwwLDUyLjI1LDlhMy40OCwzLjQ4LDAsMCwwLTMuMzUsMy42NiwzLjQ1LDMuNDUsMCwwLDAsMy4zNSwzLjYxQTMuMzUsMy4zNSwwLDAsMCw1NS40NywxMi42NVoiLz48cGF0aCBzdHlsZT0iZmlsbDojMzRhODUzIiBkPSJNNjIuNDMuNjRWMTguMjZINTkuNzlWLjY0WiIvPjxwYXRoIHN0eWxlPSJmaWxsOiNlYTQzMzUiIGQ9Ik03Mi44MywxNC42LDc0Ljg5LDE2YTYsNiwwLDAsMS01LDIuNjYsNS44MSw1LjgxLDAsMCwxLTUuODktNiw1LjUyLDUuNTIsMCwwLDEsMTAuNzUtMi4xOGwuMjcuNjktOCwzLjMxYTMuMDcsMy4wNywwLDAsMCwyLjkyLDEuODJBMy40NCwzLjQ0LDAsMCwwLDcyLjgzLDE0LjZabS02LjMxLTIuMTYsNS4zOC0yLjIyQTIuMzQsMi4zNCwwLDAsMCw2OS42Niw5LDMuMjksMy4yOSwwLDAsMCw2Ni41MiwxMi40NFoiLz48L2c+PC9zdmc+;" vertex="1" parent="1">
          <mxGeometry x="50" y="-2270" width="138" height="24" as="geometry" />
        </mxCell>
        <mxCell id="DfMK4wFIMiDA-IrmHZem-24" value="" style="swimlane;startSize=0;strokeColor=#FF0080;fillColor=none;fontColor=#ffffff;" vertex="1" parent="1">
          <mxGeometry x="41" y="-2199" width="359" height="469" as="geometry">
            <mxRectangle x="41" y="-2199" width="50" height="40" as="alternateBounds" />
          </mxGeometry>
        </mxCell>
        <mxCell id="DfMK4wFIMiDA-IrmHZem-25" value="&lt;font color=&quot;#ff0080&quot; style=&quot;font-size: 16px;&quot;&gt;CUBE APP 排隊機制&lt;/font&gt;" style="text;html=1;align=center;verticalAlign=middle;resizable=0;points=[];autosize=1;" vertex="1" parent="DfMK4wFIMiDA-IrmHZem-24">
          <mxGeometry x="94.5" y="9" width="170" height="30" as="geometry" />
        </mxCell>
        <mxCell id="DfMK4wFIMiDA-IrmHZem-3" value="" style="strokeColor=#dddddd;shadow=1;strokeWidth=1;rounded=1;absoluteArcSize=1;arcSize=2;fontSize=14;" vertex="1" parent="DfMK4wFIMiDA-IrmHZem-24">
          <mxGeometry x="64.5" y="73" width="230" height="60" as="geometry" />
        </mxCell>
        <mxCell id="DfMK4wFIMiDA-IrmHZem-4" value="&lt;font style=&quot;font-size: 14px;&quot;&gt;&lt;font style=&quot;font-size: 14px;&quot; color=&quot;#000000&quot;&gt;cubeque-login&lt;/font&gt;&lt;br&gt;Cloud Run&lt;/font&gt;" style="editableCssRules=.*;html=1;fontColor=#999999;shape=image;verticalLabelPosition=middle;labelBackgroundColor=#ffffff;verticalAlign=middle;labelPosition=right;align=left;spacingLeft=20;part=1;points=[];imageAspect=0;image=data:image/svg+xml,PHN2ZyB4bWxucz0iaHR0cDovL3d3dy53My5vcmcvMjAwMC9zdmciIHhtbG5zOnY9Imh0dHBzOi8vdmVjdGEuaW8vbmFubyIgd2lkdGg9IjM2NS40NjQ5OTY3NzA0MjQ5MyIgaGVpZ2h0PSIzNzkuMjIyOTk0NDYzNTc3OTUiIHZpZXdCb3g9IjAgMCA5Ni42OTU5OTkxNDU1MDc4MSAxMDAuMzM1OTk4NTM1MTU2MjUiPiYjeGE7PHN0eWxlIHR5cGU9InRleHQvY3NzIj4mI3hhOwkuc3Qwe2ZpbGw6IzQyODVmNDt9JiN4YTsJLnN0MXtmaWxsOiNhZWNiZmE7fSYjeGE7PC9zdHlsZT4mI3hhOwk8cGF0aCBjbGFzcz0ic3QwIiBkPSJNMjkuNzk0IDEwMC4zMzZMNDYuOTIgNTAuMTY4aDQ5Ljc3NnpNMCA5OS42NzFsMTIuOTc2LTQ5LjUwMkgyOS4yMkwxNi44OTcgOTIuMDU0eiIvPiYjeGE7CTxwYXRoIGNsYXNzPSJzdDEiIGQ9Ik0yOS43OTQgMEw0Ni45MiA1MC4xNjhoNDkuNzc2ek0wIC42NjZsMTIuOTc2IDQ5LjUwMkgyOS4yMkwxNi44OTcgOC4yODN6Ii8+JiN4YTs8L3N2Zz4=;" vertex="1" parent="DfMK4wFIMiDA-IrmHZem-3">
          <mxGeometry width="30" height="30" relative="1" as="geometry">
            <mxPoint x="15" y="15" as="offset" />
          </mxGeometry>
        </mxCell>
        <mxCell id="DfMK4wFIMiDA-IrmHZem-15" value="" style="strokeColor=#dddddd;shadow=1;strokeWidth=1;rounded=1;absoluteArcSize=1;arcSize=2;fontSize=14;" vertex="1" parent="DfMK4wFIMiDA-IrmHZem-24">
          <mxGeometry x="64.5" y="153" width="230" height="60" as="geometry" />
        </mxCell>
        <mxCell id="DfMK4wFIMiDA-IrmHZem-16" value="&lt;font style=&quot;font-size: 14px;&quot;&gt;&lt;font style=&quot;font-size: 14px;&quot; color=&quot;#000000&quot;&gt;cubeque-config&lt;/font&gt;&lt;br&gt;Cloud Run&lt;/font&gt;" style="editableCssRules=.*;html=1;fontColor=#999999;shape=image;verticalLabelPosition=middle;labelBackgroundColor=#ffffff;verticalAlign=middle;labelPosition=right;align=left;spacingLeft=20;part=1;points=[];imageAspect=0;image=data:image/svg+xml,PHN2ZyB4bWxucz0iaHR0cDovL3d3dy53My5vcmcvMjAwMC9zdmciIHhtbG5zOnY9Imh0dHBzOi8vdmVjdGEuaW8vbmFubyIgd2lkdGg9IjM2NS40NjQ5OTY3NzA0MjQ5MyIgaGVpZ2h0PSIzNzkuMjIyOTk0NDYzNTc3OTUiIHZpZXdCb3g9IjAgMCA5Ni42OTU5OTkxNDU1MDc4MSAxMDAuMzM1OTk4NTM1MTU2MjUiPiYjeGE7PHN0eWxlIHR5cGU9InRleHQvY3NzIj4mI3hhOwkuc3Qwe2ZpbGw6IzQyODVmNDt9JiN4YTsJLnN0MXtmaWxsOiNhZWNiZmE7fSYjeGE7PC9zdHlsZT4mI3hhOwk8cGF0aCBjbGFzcz0ic3QwIiBkPSJNMjkuNzk0IDEwMC4zMzZMNDYuOTIgNTAuMTY4aDQ5Ljc3NnpNMCA5OS42NzFsMTIuOTc2LTQ5LjUwMkgyOS4yMkwxNi44OTcgOTIuMDU0eiIvPiYjeGE7CTxwYXRoIGNsYXNzPSJzdDEiIGQ9Ik0yOS43OTQgMEw0Ni45MiA1MC4xNjhoNDkuNzc2ek0wIC42NjZsMTIuOTc2IDQ5LjUwMkgyOS4yMkwxNi44OTcgOC4yODN6Ii8+JiN4YTs8L3N2Zz4=;" vertex="1" parent="DfMK4wFIMiDA-IrmHZem-15">
          <mxGeometry width="30" height="30" relative="1" as="geometry">
            <mxPoint x="15" y="15" as="offset" />
          </mxGeometry>
        </mxCell>
        <mxCell id="DfMK4wFIMiDA-IrmHZem-13" value="" style="strokeColor=#dddddd;shadow=1;strokeWidth=1;rounded=1;absoluteArcSize=1;arcSize=2;fontSize=14;" vertex="1" parent="DfMK4wFIMiDA-IrmHZem-24">
          <mxGeometry x="64.5" y="233" width="230" height="60" as="geometry" />
        </mxCell>
        <mxCell id="DfMK4wFIMiDA-IrmHZem-14" value="&lt;font style=&quot;font-size: 14px;&quot;&gt;&lt;font style=&quot;font-size: 14px;&quot; color=&quot;#000000&quot;&gt;cubeque-control&lt;/font&gt;&lt;br&gt;Cloud Run&lt;/font&gt;" style="editableCssRules=.*;html=1;fontColor=#999999;shape=image;verticalLabelPosition=middle;labelBackgroundColor=#ffffff;verticalAlign=middle;labelPosition=right;align=left;spacingLeft=20;part=1;points=[];imageAspect=0;image=data:image/svg+xml,PHN2ZyB4bWxucz0iaHR0cDovL3d3dy53My5vcmcvMjAwMC9zdmciIHhtbG5zOnY9Imh0dHBzOi8vdmVjdGEuaW8vbmFubyIgd2lkdGg9IjM2NS40NjQ5OTY3NzA0MjQ5MyIgaGVpZ2h0PSIzNzkuMjIyOTk0NDYzNTc3OTUiIHZpZXdCb3g9IjAgMCA5Ni42OTU5OTkxNDU1MDc4MSAxMDAuMzM1OTk4NTM1MTU2MjUiPiYjeGE7PHN0eWxlIHR5cGU9InRleHQvY3NzIj4mI3hhOwkuc3Qwe2ZpbGw6IzQyODVmNDt9JiN4YTsJLnN0MXtmaWxsOiNhZWNiZmE7fSYjeGE7PC9zdHlsZT4mI3hhOwk8cGF0aCBjbGFzcz0ic3QwIiBkPSJNMjkuNzk0IDEwMC4zMzZMNDYuOTIgNTAuMTY4aDQ5Ljc3NnpNMCA5OS42NzFsMTIuOTc2LTQ5LjUwMkgyOS4yMkwxNi44OTcgOTIuMDU0eiIvPiYjeGE7CTxwYXRoIGNsYXNzPSJzdDEiIGQ9Ik0yOS43OTQgMEw0Ni45MiA1MC4xNjhoNDkuNzc2ek0wIC42NjZsMTIuOTc2IDQ5LjUwMkgyOS4yMkwxNi44OTcgOC4yODN6Ii8+JiN4YTs8L3N2Zz4=;" vertex="1" parent="DfMK4wFIMiDA-IrmHZem-13">
          <mxGeometry width="30" height="30" relative="1" as="geometry">
            <mxPoint x="15" y="15" as="offset" />
          </mxGeometry>
        </mxCell>
        <mxCell id="DfMK4wFIMiDA-IrmHZem-5" value="" style="strokeColor=#dddddd;shadow=1;strokeWidth=1;rounded=1;absoluteArcSize=1;arcSize=2;fontSize=14;" vertex="1" parent="DfMK4wFIMiDA-IrmHZem-24">
          <mxGeometry x="64.5" y="386" width="230" height="60" as="geometry" />
        </mxCell>
        <mxCell id="DfMK4wFIMiDA-IrmHZem-6" value="&lt;font style=&quot;font-size: 14px;&quot;&gt;&lt;font style=&quot;font-size: 14px;&quot; color=&quot;#000000&quot;&gt;cubeque-status&lt;/font&gt;&lt;br&gt;Cloud Run&lt;/font&gt;" style="editableCssRules=.*;html=1;fontColor=#999999;shape=image;verticalLabelPosition=middle;labelBackgroundColor=#ffffff;verticalAlign=middle;labelPosition=right;align=left;spacingLeft=20;part=1;points=[];imageAspect=0;image=data:image/svg+xml,PHN2ZyB4bWxucz0iaHR0cDovL3d3dy53My5vcmcvMjAwMC9zdmciIHhtbG5zOnY9Imh0dHBzOi8vdmVjdGEuaW8vbmFubyIgd2lkdGg9IjM2NS40NjQ5OTY3NzA0MjQ5MyIgaGVpZ2h0PSIzNzkuMjIyOTk0NDYzNTc3OTUiIHZpZXdCb3g9IjAgMCA5Ni42OTU5OTkxNDU1MDc4MSAxMDAuMzM1OTk4NTM1MTU2MjUiPiYjeGE7PHN0eWxlIHR5cGU9InRleHQvY3NzIj4mI3hhOwkuc3Qwe2ZpbGw6IzQyODVmNDt9JiN4YTsJLnN0MXtmaWxsOiNhZWNiZmE7fSYjeGE7PC9zdHlsZT4mI3hhOwk8cGF0aCBjbGFzcz0ic3QwIiBkPSJNMjkuNzk0IDEwMC4zMzZMNDYuOTIgNTAuMTY4aDQ5Ljc3NnpNMCA5OS42NzFsMTIuOTc2LTQ5LjUwMkgyOS4yMkwxNi44OTcgOTIuMDU0eiIvPiYjeGE7CTxwYXRoIGNsYXNzPSJzdDEiIGQ9Ik0yOS43OTQgMEw0Ni45MiA1MC4xNjhoNDkuNzc2ek0wIC42NjZsMTIuOTc2IDQ5LjUwMkgyOS4yMkwxNi44OTcgOC4yODN6Ii8+JiN4YTs8L3N2Zz4=;" vertex="1" parent="DfMK4wFIMiDA-IrmHZem-5">
          <mxGeometry width="30" height="30" relative="1" as="geometry">
            <mxPoint x="15" y="15" as="offset" />
          </mxGeometry>
        </mxCell>
        <mxCell id="DfMK4wFIMiDA-IrmHZem-27" value="" style="swimlane;startSize=0;fontColor=#FF8000;strokeColor=#FF9933;" vertex="1" parent="DfMK4wFIMiDA-IrmHZem-24">
          <mxGeometry x="39" y="319" width="281" height="201" as="geometry" />
        </mxCell>
        <mxCell id="DfMK4wFIMiDA-IrmHZem-28" value="&lt;font style=&quot;font-size: 16px;&quot;&gt;CUBE APP 緊急公告&lt;/font&gt;" style="text;html=1;align=center;verticalAlign=middle;resizable=0;points=[];autosize=1;strokeColor=none;fillColor=none;fontColor=#FF9933;" vertex="1" parent="DfMK4wFIMiDA-IrmHZem-27">
          <mxGeometry x="55.5" y="10" width="170" height="30" as="geometry" />
        </mxCell>
      </root>
    </mxGraphModel>
  </diagram>
</mxfile>
